<?xml version="1.0" encoding="UTF-8" standalone="no"?>
<svg
   xmlns:dc="http://purl.org/dc/elements/1.1/"
   xmlns:cc="http://creativecommons.org/ns#"
   xmlns:rdf="http://www.w3.org/1999/02/22-rdf-syntax-ns#"
   xmlns:svg="http://www.w3.org/2000/svg"
   xmlns="http://www.w3.org/2000/svg"
   xmlns:sodipodi="http://sodipodi.sourceforge.net/DTD/sodipodi-0.dtd"
   xmlns:inkscape="http://www.inkscape.org/namespaces/inkscape"
   width="29px"
   height="6px"
   version="1.1"
   id="svg4"
   sodipodi:docname="left_3.svg"
   inkscape:version="0.92.3 (2405546, 2018-03-11)">
  <metadata
     id="metadata10">
    <rdf:RDF>
      <cc:Work
         rdf:about="">
        <dc:format>image/svg+xml</dc:format>
        <dc:type
           rdf:resource="http://purl.org/dc/dcmitype/StillImage" />
      </cc:Work>
    </rdf:RDF>
  </metadata>
  <defs
     id="defs8" />
  <sodipodi:namedview
     pagecolor="#ffffff"
     bordercolor="#666666"
     borderopacity="1"
     objecttolerance="10"
     gridtolerance="10"
     guidetolerance="10"
     inkscape:pageopacity="0"
     inkscape:pageshadow="2"
     inkscape:window-width="716"
     inkscape:window-height="480"
     id="namedview6"
     showgrid="false"
     inkscape:zoom="9.7931034"
     inkscape:cx="14.5"
     inkscape:cy="3"
     inkscape:window-x="0"
     inkscape:window-y="0"
     inkscape:window-maximized="0"
     inkscape:current-layer="svg4" />
  <path
     fill-rule="evenodd"
     fill="rgb(255, 100, 38)"
     d="M28.388,6.003 L0.606,6.003 C0.268,6.003 -0.006,5.758 -0.006,5.457 C-0.006,5.155 0.268,4.911 0.606,4.911 L26.293,4.911 L20.387,1.543 L20.387,4.036 C20.387,4.338 20.113,4.582 19.774,4.582 C19.436,4.582 19.162,4.338 19.162,4.036 L19.162,0.546 C19.162,0.346 19.284,0.162 19.480,0.066 C19.572,0.022 19.673,-0.001 19.774,-0.001 C19.889,-0.001 20.004,0.028 20.104,0.085 L28.718,4.996 C28.947,5.127 29.052,5.377 28.976,5.610 C28.899,5.843 28.660,6.003 28.388,6.003 Z"
     id="path2"
     style="fill:#0487d9;fill-opacity:0.80392158" />
</svg>
